<svg id="Capa_1" data-name="Capa 1" xmlns="http://www.w3.org/2000/svg" viewBox="0 0 42.86 45.21"><defs><style>.cls-1{fill:#1a1f2d;stroke:#fff;stroke-miterlimit:22.93;stroke-width:1.2px;fill-rule:evenodd;}</style></defs><title>logo</title><path class="cls-1" d="M7.14,37.65c0-4.82-.8-18.9.91-22.31,1.3-2.59,3.54-3.65,6.31-5.08,2.11-.88,6.79-4.42,7.92-3.47C24.45,9,11.65,11.54,9.55,16.51c-.88,2.08-.77,19.27-.44,22.37l6.31,3.6c0-4.72-.64-19.89.88-23s3.29-3.57,6.45-5.26c1.32-.7,2.59-1.41,3.94-2.07s2.95-2,3.63-.72c.42.79-.65,1.31-2.87,2.42-4.09,2.05-8.7,3.7-9.8,7.26-.68,2.2-.4,19.16-.29,22.57,6,2.3,8.12.09,15.32-4,8.71-5,9.92-4,9.52-11.72L29.71,35.11c-2.15,1-2.29-.57-2.29-.57-.12-.63,2.67-1.77,3.76-2.4,9.73-5.63,11.68-4.68,10.8-12.81-3.08,1.53-13.2,8.73-14.58,7.61s0-1.39,1.24-2.08c2.22-1.24,11.61-6.37,12.53-7.42,1.25-1.45,1.23-4.81.19-6.36s-7.52-4.74-9.82-6C20-1.14,22.41-.93,9.79,6c-11,6-9,5.07-9.08,22.45,0,2.91.12,4.21,1.64,6.15A9.61,9.61,0,0,0,7.14,37.65Z"/></svg>